<?xml version="1.0" encoding="utf-8"?>
<!-- Generator: Adobe Illustrator 19.0.0, SVG Export Plug-In . SVG Version: 6.00 Build 0)  -->
<!DOCTYPE svg PUBLIC "-//W3C//DTD SVG 1.0//EN" "http://www.w3.org/TR/2001/REC-SVG-20010904/DTD/svg10.dtd">
<svg version="1.0" id="Layer_1" xmlns="http://www.w3.org/2000/svg" xmlns:xlink="http://www.w3.org/1999/xlink" x="0px" y="0px"
	 viewBox="0 0 792 612" style="enable-background:new 0 0 792 612;" xml:space="preserve">
<g>
	<path style="fill:#FFFFFF;" d="M675.831,399.115h-97.358c-5.788,0-12.517-4.614-12.517-10.558c-0.067-0.49-0.234-2.454,0.078-3.729
		c4.169-17.159,31.2-70.944,32.347-73.226l0.774-1.536h55.995l0.785,1.531c1.152,2.282,28.178,56.067,32.352,73.22
		c0.295,1.208,0.15,3.261,0.067,4.386C688.342,394.941,681.758,399.115,675.831,399.115L675.831,399.115z M602.583,315.632
		c-4.514,9.05-27.505,55.522-31.139,70.493c-0.05,0.289-0.022,1.319,0.061,2.132c0.017,2.822,3.996,5.293,6.968,5.293h97.358
		c3.055,0,6.946-2.171,6.946-4.597c0.111-1.269,0.128-2.51,0.067-2.866c-3.618-14.949-26.609-61.416-31.122-70.46L602.583,315.632
		L602.583,315.632z"/>
	<path style="fill:#FFFFFF;" d="M654.982,304.501h-55.655c-1.536,0-2.783-1.247-2.783-2.783c0-1.536,1.247-2.783,2.783-2.783h55.655
		c1.531,0,2.783,1.247,2.783,2.783C657.765,303.254,656.513,304.501,654.982,304.501z"/>
	<path style="fill:#FFFFFF;" d="M621.7,293.37c-0.039,0-0.072,0-0.111,0h-11.131c-2.237-0.223-19.446-2.237-24.199-9.934
		c-1.453-2.349-1.686-5.026-0.668-7.742c2.193-5.838,8.465-9.762,15.617-9.762c8.716,0,19.251,6.161,22.958,23.359
		c0.206,0.384,0.323,0.829,0.323,1.297C624.483,292.123,623.231,293.37,621.7,293.37L621.7,293.37z M601.197,271.497
		c-4.764,0-9.044,2.532-10.402,6.161c-0.406,1.085-0.351,1.97,0.189,2.855c2.51,4.063,13.452,6.64,19.758,7.308l7.324-0.017
		C613.847,272.733,604.213,271.497,601.197,271.497z"/>
	<path style="fill:#FFFFFF;" d="M643.406,293.37h-11.131c-0.835,0-1.631-0.373-2.154-1.018c-0.534-0.646-0.746-1.492-0.579-2.31
		c3.556-17.782,14.264-24.115,23.114-24.115c7.152,0,13.424,3.924,15.611,9.762c1.024,2.71,0.796,5.387-0.662,7.742
		c-4.753,7.697-21.967,9.717-23.904,9.923C643.601,293.364,643.506,293.37,643.406,293.37L643.406,293.37z M635.798,287.804h7.458
		c6.328-0.696,17.131-3.261,19.607-7.291c0.557-0.885,0.607-1.764,0.195-2.855c-1.358-3.629-5.643-6.161-10.402-6.161
		C649.645,271.497,640.011,272.738,635.798,287.804z"/>
	<path style="fill:#FFFFFF;" d="M627.388,379.24c-8.799,0-14.71-5.109-14.71-12.717c0-1.531,1.247-2.783,2.783-2.783
		s2.783,1.252,2.783,2.783c0,6.634,7.001,7.152,9.144,7.152c2.143,0,9.144-0.512,9.144-7.152c0-4.152-1.614-5.109-8.454-8.476
		l-3.829-1.898c-6.718-3.323-11.571-5.71-11.571-13.469c0-7.658,5.911-12.806,14.71-12.806c8.699,0,14.543,5.148,14.543,12.806
		c0,1.536-1.247,2.783-2.783,2.783c-1.531,0-2.783-1.247-2.783-2.783c0-6.718-6.873-7.241-8.977-7.241
		c-4.419,0-9.144,1.903-9.144,7.241c0,4.146,1.62,5.104,8.465,8.471l3.835,1.903c6.706,3.317,11.554,5.699,11.554,13.469
		C642.098,374.126,636.187,379.24,627.388,379.24L627.388,379.24z"/>
	<path style="fill:#FFFFFF;" d="M627.154,335.111c-1.536,0-2.783-1.247-2.783-2.783v-5.566c0-1.536,1.247-2.783,2.783-2.783
		s2.783,1.247,2.783,2.783v5.566C629.937,333.865,628.685,335.111,627.154,335.111z"/>
	<path style="fill:#FFFFFF;" d="M627.154,385.201c-1.536,0-2.783-1.247-2.783-2.783v-5.566c0-1.536,1.247-2.783,2.783-2.783
		s2.783,1.247,2.783,2.783v5.566C629.937,383.954,628.685,385.201,627.154,385.201z"/>
</g>
<g>
	<g id="XMLID_52_">
		<path id="XMLID_55_" style="fill:#FFFFFF;" d="M130.736,363.815l0.12,18.622c0.001,0.243,0.042,0.478,0.101,0.703
			c-0.059,0.232-0.101,0.471-0.101,0.72c0,1.6,1.298,2.898,2.898,2.898h59.412c1.6,0,2.898-1.298,2.898-2.898
			c0-0.294-0.057-0.574-0.139-0.842c0.039-0.188,0.062-0.385,0.064-0.585l0.12-18.639c0-14.249-8.309-25.182-24.118-31.971
			c16.011-6.663,24.118-17.338,24.118-31.804l-0.045-19.004c0-0.006-0.001-0.013-0.001-0.019s0.001-0.013,0.001-0.019
			c0-1.6-1.298-2.898-2.898-2.898c-0.001,0-0.004,0-0.007,0h-59.404c-0.012,0-0.023,0.003-0.035,0.003
			c-0.012,0-0.022-0.003-0.033-0.003c-0.003,0-0.006,0-0.007,0c-1.598,0-2.895,1.337-2.898,2.936l-0.045,19.032
			c0,14.46,8.106,25.125,24.117,31.787C139.045,338.621,130.736,349.552,130.736,363.815z M136.533,300.031l0.038-16.157h53.705
			l0.038,16.172c0,13.741-8.803,23.127-26.876,28.694C145.344,323.174,136.533,313.773,136.533,300.031z M163.407,334.834
			c17.839,5.644,26.906,15.375,26.906,28.945l-0.11,17.183h-53.559l-0.112-17.168C136.533,350.214,145.589,340.478,163.407,334.834z
			"/>
		<path id="XMLID_54_" style="fill:#FFFFFF;" d="M201.861,266.486h-76.8c-1.6,0-2.898,1.298-2.898,2.898s1.298,2.898,2.898,2.898
			h76.8c1.6,0,2.898-1.298,2.898-2.898S203.461,266.486,201.861,266.486z"/>
		<path id="XMLID_53_" style="fill:#FFFFFF;" d="M116.114,395.322c0,1.807,1.466,3.273,3.273,3.273h86.738
			c1.807,0,3.273-1.466,3.273-3.273s-1.466-3.273-3.273-3.273h-86.738C117.581,392.049,116.114,393.515,116.114,395.322z"/>
	</g>
</g>
<g>
	<path style="fill:#FFFFFF;" d="M144.268,311.418h38.26c0,0-3.564,12.049-19.661,12.049
		C149.367,323.466,144.268,311.418,144.268,311.418z"/>
</g>
<path style="fill:#FFFFFF;" d="M189.302,378.837c-6.336,0-21.178-11.2-23.639-13.733c-2.461-2.534-2.325-1.501-3.545,1.817
	c-1.455,3.958-23.959,11.917-23.959,11.917H189.302z"/>
<circle style="fill:#FFFFFF;" cx="163.049" cy="337.532" r="0.922"/>
<circle style="fill:#FFFFFF;" cx="163.049" cy="342.411" r="0.922"/>
<circle style="fill:#FFFFFF;" cx="163.049" cy="350.354" r="0.922"/>
<circle style="fill:#FFFFFF;" cx="163.049" cy="359.508" r="0.922"/>
<g>
	<path style="fill:#EFEFF0;" d="M367.846,489.226c-3.855,0-4.818-3.378-2.19-7.535l27.158-42.091c2.628-4.157,7.008-4.157,9.637,0
		l27.158,42.091c2.628,4.157,1.664,7.535-2.19,7.535H367.846L367.846,489.226z"/>
</g>
<path style="fill:#EFEFF0;" d="M694.705,418.603c0,3.883-4.197,7.031-9.375,7.031H114.891c-5.178,0-9.375-3.148-9.375-7.031v-0.702
	c0-3.883,4.197-7.031,9.375-7.031H685.33c5.178,0,9.375,3.148,9.375,7.031V418.603z"/>
<g id="XMLID_1_">
</g>
<g id="XMLID_2_">
</g>
<g id="XMLID_3_">
</g>
<g id="XMLID_4_">
</g>
<g id="XMLID_5_">
</g>
<g id="XMLID_6_">
</g>
</svg>
